<svg xmlns="http://www.w3.org/2000/svg" viewBox="0 0 633.25 50.7"><defs><style>.cls-1{fill:#fff;}</style></defs><title>GEELYDESIGN@2</title><g id="Layer_2" data-name="Layer 2"><g id="Layer_1-2" data-name="Layer 1"><path class="cls-1" d="M505.83.15h-4.55c-.55,0-.77,0-.77.73V49.94c0,.71.25.73.8.73h4.55c.54,0,.77,0,.77-.73V.88c0-.71-.25-.73-.8-.73"/><path class="cls-1" d="M382.52,16.48a178.21,178.21,0,0,0,0,18c.56,11.27,8.1,16.23,18.33,16.23H432c.58,0,.61-.23.61-.77h0V47.17c0-.55,0-.73-.7-.73,0,0-14.86,0-30.62,0-7.06,0-12-3.91-12.6-10.37-.25-2.6-.44-5.44-.48-8.63h42.86c.42,0,.44-.25.44-.78v-3.1c0-.6,0-.8-.37-.8h-42.9a84.17,84.17,0,0,1,.5-8.56c.71-6,6.27-9.59,12.61-9.69h30.59c.66,0,.68-.25.68-.8V.93h0c0-.54,0-.76-.61-.77h0c-.1,0-.3,0-31.16,0-8,0-17.66,3.53-18.32,16.33"/><path class="cls-1" d="M374.82,16.28C374.31,7.05,368.49.15,356,.15H317.4c-.27,0-.5,0-.5.73V49.94c0,.71.25.73.8.73H356c12.47,0,18.2-6.8,18.82-16.31a152,152,0,0,0,0-18.08m-6.27,20.2c-1.06,8.9-10.33,9.93-12.3,9.89-1.33.06-33.23,0-33.23,0V4.49h33.56c6.33.1,11.33,4.15,11.94,9.89a100,100,0,0,1,0,22.09"/><path class="cls-1" d="M250.28,39.55H215.84c-1.9,0-2.94-.66-2.94-2.65V1.63c0-1.46-.48-1.48-1.6-1.48H199.84c-1.12,0-1.63,0-1.63,1.48v34c0,11.41,4.11,15,15.17,15h37c1.34,0,1.35-.49,1.35-1.6V41.15c0-1.12,0-1.6-1.48-1.6"/><path class="cls-1" d="M151.09,11.05h36.31c1.48,0,1.41-.43,1.41-1.53V1.69c0-1.11.07-1.54-1.41-1.54h-37C140.2.15,133.95,3.36,133.95,14V36.84c0,10.63,6.25,13.83,16.46,13.83h37c1.48,0,1.41-.41,1.41-1.53V41.3c0-1.1.07-1.53-1.41-1.53H151.09c-1.57,0-2.46-.62-2.46-2.23V30.59h37.76c1.47,0,1.41-.42,1.41-1.53V21.22c0-1.12.06-1.53-1.41-1.53H148.63V13.29c0-1.6.89-2.24,2.46-2.24"/><path class="cls-1" d="M88.12,11.05h36.31c1.47,0,1.43-.43,1.43-1.53V1.69c0-1.11,0-1.54-1.43-1.54h-37C77.23.15,71,3.36,71,14V36.84c0,10.63,6.24,13.83,16.47,13.83h37c1.47,0,1.43-.41,1.43-1.53V41.3c0-1.1,0-1.53-1.43-1.53H88.12c-1.57,0-2.44-.62-2.44-2.23V30.59h37.76c1.47,0,1.42-.42,1.42-1.53V21.22c0-1.12.05-1.53-1.42-1.53H85.68V13.29c0-1.6.88-2.24,2.44-2.24"/><path class="cls-1" d="M17.14,11.05H60c1.46,0,1.41-.43,1.41-1.53V1.69C61.41.58,61.46.15,60,.15H16.47C6.24.15,0,3.36,0,14V36.84C0,47.47,6.24,50.67,16.47,50.67H60c1.46,0,1.41-.41,1.41-1.53V21.22c0-1.12.05-1.53-1.41-1.53H24.07c-1.46,0-1.4.41-1.4,1.53v7.83c0,1.11-.06,1.53,1.4,1.53H46.73v9.18H17.14c-1.56,0-2.44-.62-2.44-2.23V13.29c0-1.6.88-2.24,2.44-2.24"/><path class="cls-1" d="M306.65.15H293.38A5.17,5.17,0,0,0,289,1.83l-18.23,20-18.22-20A5.2,5.2,0,0,0,248.24.15H235c-1.1,0-1.54.49-.26,1.9l28.76,31.57V49.19c0,1.47.48,1.49,1.6,1.49h11.47c1.11,0,1.62,0,1.62-1.49V33.62L306.9,2c1.27-1.41.85-1.9-.26-1.9"/><path class="cls-1" d="M627.83,50.67c1.16,0,5.14,0,5.32,0s.1,0,.1-.71V.61c0-.44-.29-.46-.47-.46h-5.21a.43.43,0,0,0-.43.45V45.2a1.63,1.63,0,0,1-1.24-.57L590.91,3A7.36,7.36,0,0,0,585.54.13H580a.44.44,0,0,0-.41.44c0,5.56,0,49.37,0,49.37,0,.71.27.73.88.73h4.79a.45.45,0,0,0,.42-.47V5.63a1.62,1.62,0,0,1,1.24.57l35.24,41.95a7.35,7.35,0,0,0,4.21,2.45Z"/><path class="cls-1" d="M515.88,30.73c0-.16-.08-5.93-.08-5.93l.18-6.52s.39-7.79,3.52-11.73c3.38-4.27,8.37-6.38,15.13-6.4l36.12,0a.41.41,0,0,1,.45.44s0,3.43,0,3.48a.46.46,0,0,1-.45.4H535.09a30.5,30.5,0,0,0-3.46.16c-8.13,1-9.12,7.46-9.38,11.12,0,.08-.24,4.29-.24,4.29l-.17,4.82,0,4.87c0,1.5.13,9.14,2,11.81,1.4,2,3.38,4.54,11,4.78l30.5-.05V27.38l-28.13,0a.44.44,0,0,1-.46-.43V23.16c0-.4.42-.4.61-.4s32.51,0,33.32,0,.79.25.78.7c0,0,0,26.31,0,26.77a.43.43,0,0,1-.46.44l-37.33,0c-6.59-.08-12.35-3.11-14.72-7.07-2.89-4.82-2.89-9.5-3.11-12.9"/><path class="cls-1" d="M478.75,27.25l-24,0c-6.37-.17-13.49-2.63-13.45-14C441.13-.3,454.6.1,455.77.07l35-.07c.06,0,.35,0,.42.42,0,.83,0,3.33,0,3.48a.45.45,0,0,1-.37.44H457.4c-2,.15-10.28-.89-10.14,8.95-.1,8.79,4.76,9.08,8,9.3l23.12,0c3.79.09,14.56-.2,14.71,13.2.19,14.06-12.46,14.67-15.16,14.71h-34.6a.44.44,0,0,1-.43-.4c0-.38,0-3.53,0-3.53a.43.43,0,0,1,.43-.4h33.16l1.52,0c4.18-.34,9.27-1.9,9.15-10.19-.1-1.76.2-8.53-8.37-8.72"/></g></g></svg>