<svg width="640" height="50" viewBox="0 0 640 50" xmlns="http://www.w3.org/2000/svg"><title>952F09C3-D483-4253-BFC0-D1AAB55D99E4</title><g fill="#101820" fill-rule="evenodd"><path d="M510.944.149h-4.594c-.554 0-.78.02-.78.721v48.334c0 .699.25.724.81.724h4.594c.55 0 .78-.025.78-.724V.87c0-.7-.25-.721-.81-.721M386.383 16.237a171.302 171.302 0 0 0-.01 17.728c.568 11.099 8.18 15.988 18.512 15.988h31.495c.59-.002.612-.222.612-.756v-2.728c0-.547-.039-.716-.705-.724-.024 0-15.007.048-30.935 0-7.132-.013-12.107-3.856-12.728-10.22-.25-2.56-.44-5.357-.486-8.506h43.296c.422 0 .442-.241.442-.766v-3.057c0-.59-.004-.79-.377-.79H392.16c.047-3.149.2-5.933.504-8.439.713-5.885 6.332-9.45 12.737-9.541 30.652.003 30.876-.002 30.9-.002.667-.008.689-.244.689-.791V.905c0-.534-.022-.754-.612-.756h-.02c-.104 0-.305-.032-31.474 0-8.099.008-17.84 3.477-18.502 16.088M372.275 35.936c-1.074 8.766-10.436 9.78-12.425 9.743-1.347.063-33.563-.025-33.563-.025V4.424c33.61 0 33.756 0 33.9.003 6.396.093 11.447 4.084 12.062 9.749.785 7.235.886 14.738.026 21.76m6.338-19.899c-.52-9.09-6.396-15.889-19.018-15.889h-38.988c-.276 0-.505.021-.505.722v48.337c0 .695.248.721.81.721h38.706c12.599 0 18.388-6.704 19.007-16.075.39-5.903.324-11.911-.012-17.816M252.813 38.961h-34.788c-1.922 0-2.972-.652-2.972-2.615V1.605c0-1.435-.49-1.456-1.61-1.456h-11.585c-1.129 0-1.641.021-1.641 1.456v33.494c0 11.24 4.153 14.826 15.32 14.826h37.4c1.353 0 1.368-.485 1.368-1.578v-7.806c0-1.101-.015-1.58-1.492-1.58M152.614 10.888h36.674c1.493 0 1.426-.42 1.426-1.507V1.663c0-1.095.067-1.518-1.426-1.518H151.93c-10.313 0-16.628 3.163-16.628 13.634v22.516c0 10.47 6.315 13.627 16.628 13.627h37.357c1.493 0 1.426-.41 1.426-1.511v-7.717c0-1.087.067-1.508-1.426-1.508h-36.674c-1.582 0-2.48-.616-2.48-2.203v-6.844h38.144c1.485 0 1.426-.417 1.426-1.512V20.91c0-1.102.059-1.507-1.426-1.507h-38.145v-6.312c0-1.58.9-2.203 2.481-2.203M89.008 10.888h36.68c1.486 0 1.442-.42 1.442-1.507V1.663c0-1.095.044-1.518-1.441-1.518h-37.35c-10.334 0-16.634 3.163-16.634 13.634v22.516c0 10.47 6.3 13.627 16.634 13.627h37.35c1.486 0 1.44-.41 1.44-1.511v-7.717c0-1.087.045-1.508-1.44-1.508H89.008c-1.582 0-2.467-.616-2.467-2.203v-6.844h38.137c1.487 0 1.434-.417 1.434-1.512V20.91c0-1.102.053-1.507-1.434-1.507H86.54v-6.312c0-1.58.885-2.203 2.467-2.203M60.612 10.888c1.47 0 1.419-.42 1.419-1.507V1.663c0-1.095.052-1.518-1.42-1.518H16.636C6.308.145 0 3.308 0 13.78v22.516c0 10.47 6.308 13.627 16.635 13.627h43.977c1.47 0 1.419-.41 1.419-1.511v-27.5c0-1.103.052-1.508-1.42-1.508H24.318c-1.478 0-1.419.405-1.419 1.507v7.717c0 1.095-.06 1.512 1.42 1.512H47.2v9.047H17.318c-1.574 0-2.466-.616-2.466-2.203V13.09c0-1.58.892-2.203 2.466-2.203h43.294zM309.745.149h-13.402c-1.74 0-3.106.26-4.391 1.652l-18.41 19.697-18.405-19.697C253.829.41 252.477.15 250.747.15h-13.411c-1.115 0-1.553.478-.26 1.87l29.05 31.102v15.337c0 1.446.49 1.467 1.62 1.467h11.583c1.121 0 1.633-.021 1.633-1.467V33.121l29.043-31.103c1.286-1.391.863-1.87-.26-1.87M634.176 49.926c1.168 0 5.185-.003 5.37-.015.058-.003.105-.007.105-.703V.598c-.037-.435-.301-.45-.475-.45h-5.259c-.428.03-.439.39-.439.446v43.934a1.659 1.659 0 0 1-1.252-.562L596.88 2.949S594.819.166 591.464.13l-5.587.002s-.417.026-.417.434l.005 48.642c0 .699.275.721.893.721h4.836c.423-.073.418-.41.418-.466V5.548c.48-.003.95.209 1.252.561l35.6 41.328c.11.124 1.822 2.107 4.253 2.413l1.46.076zM521.096 30.278c.002-.157-.08-5.842-.08-5.842l.183-6.423s.394-7.673 3.55-11.56c3.416-4.207 8.454-6.29 15.282-6.305l36.487.017c.259 0 .45.137.45.432.004 0 0 3.378 0 3.432a.454.454 0 0 1-.45.395H540.5c.085-.022-2.494.008-3.498.157-8.213 1.01-9.216 7.35-9.48 10.955-.023.078-.244 4.226-.244 4.226l-.174 4.747.026 4.801c-.009 1.473.133 9.006 2.008 11.639 1.411 1.987 3.414 4.47 11.156 4.71l30.806-.051v-18.63l-28.412.04c-.46 0-.47-.426-.47-.426v-3.77c.037-.39.428-.39.618-.39.064 0 32.846.015 33.66 0 .777-.048.803.242.793.688v26.373c0 .455-.466.435-.466.435l-37.713.022c-6.658-.078-12.476-3.067-14.87-6.966-2.916-4.75-2.915-9.362-3.145-12.706M483.592 26.845c-.099-.002-24.205-.026-24.205-.026-6.432-.17-13.626-2.587-13.583-13.786-.21-13.327 13.387-12.93 14.57-12.96C460.904.077 495.56 0 495.697 0c.055 0 .355.016.428.414l-.001 3.432c-.004.366-.38.43-.38.43h-33.725c-1.994.15-10.387-.875-10.245 8.815-.095 8.666 4.812 8.946 8.065 9.164.996 0 23.273.026 23.358.027 3.826.087 14.712-.2 14.859 13 .193 13.853-12.587 14.449-15.312 14.494l-34.952.002s-.408-.009-.436-.393c0-.375-.02-3.476-.02-3.476s.029-.394.436-.394h33.495l1.535-.034c4.225-.331 9.369-1.875 9.244-10.04-.095-1.736.199-8.409-8.453-8.596"/></g></svg>