<svg width="800" height="64" viewBox="0 0 800 64" xmlns="http://www.w3.org/2000/svg"><title>F0AB4F51-24FA-415F-8642-58C1B01C21FB</title><g fill="#101820" fill-rule="evenodd"><path d="M638.68.19h-5.743c-.692 0-.975.027-.975.924V62.98c0 .894.312.927 1.013.927h5.743c.687 0 .975-.033.975-.927V1.114c0-.897-.314-.924-1.014-.924M482.979 20.783a224.522 224.522 0 0 0-.013 22.692c.71 14.206 10.226 20.465 23.14 20.465h39.37c.736-.003.764-.284.764-.968V59.48c0-.7-.049-.916-.882-.927-.029 0-18.758.062-38.668 0-8.916-.016-15.133-4.935-15.91-13.081a133.674 133.674 0 0 1-.607-10.887h54.12c.527 0 .552-.31.552-.981V29.69c0-.755-.005-1.012-.472-1.012h-54.171c.058-4.03.25-7.594.63-10.8.89-7.534 7.915-12.098 15.92-12.214 38.315.004 38.596-.002 38.625-.002.834-.01.862-.313.862-1.013V1.158c0-.683-.028-.965-.765-.968h-.025c-.13 0-.382-.04-39.343 0-10.123.01-22.3 4.451-23.127 20.593M465.344 45.999c-1.343 11.22-13.045 12.518-15.532 12.47-1.683.08-41.953-.032-41.953-.032V5.663c42.013 0 42.194 0 42.376.004 7.994.119 14.307 5.227 15.076 12.478.981 9.26 1.108 18.865.033 27.854m7.922-25.472C472.616 8.892 465.27.19 449.494.19h-48.736c-.344 0-.63.027-.63.924v61.87c0 .891.31.924 1.013.924h48.382c15.748 0 22.985-8.581 23.758-20.576.487-7.556.406-15.247-.015-22.805M316.016 49.87h-43.484c-2.404 0-3.715-.834-3.715-3.347V2.054c0-1.836-.613-1.864-2.014-1.864h-14.48c-1.412 0-2.052.028-2.052 1.864v42.873c0 14.386 5.191 18.977 19.15 18.977h46.75c1.692 0 1.71-.621 1.71-2.02v-9.991c0-1.41-.018-2.022-1.865-2.022M190.768 13.937h45.842c1.867 0 1.783-.537 1.783-1.929V2.13c0-1.401.084-1.943-1.783-1.943h-46.697c-12.891 0-20.785 4.048-20.785 17.451v28.82c0 13.403 7.894 17.443 20.785 17.443h46.697c1.867 0 1.783-.524 1.783-1.934v-9.878c0-1.392.084-1.93-1.783-1.93h-45.842c-1.978 0-3.102-.788-3.102-2.82v-8.76h47.681c1.857 0 1.783-.534 1.783-1.935v-9.878c0-1.41.074-1.93-1.783-1.93h-47.68v-8.079c0-2.022 1.123-2.82 3.101-2.82M111.26 13.937h45.851c1.857 0 1.801-.537 1.801-1.929V2.13c0-1.401.056-1.943-1.8-1.943h-46.688C97.507.186 89.63 4.234 89.63 17.637v28.82c0 13.403 7.876 17.443 20.793 17.443h46.687c1.857 0 1.801-.524 1.801-1.934v-9.878c0-1.392.056-1.93-1.8-1.93h-45.853c-1.977 0-3.083-.788-3.083-2.82v-8.76h47.671c1.859 0 1.793-.534 1.793-1.935v-9.878c0-1.41.066-1.93-1.793-1.93h-47.67v-8.079c0-2.022 1.105-2.82 3.082-2.82M75.765 13.937c1.838 0 1.774-.537 1.774-1.929V2.13c0-1.401.064-1.943-1.774-1.943h-54.97C7.884.186 0 4.234 0 17.637v28.82C0 59.86 7.884 63.9 20.794 63.9h54.97c1.84 0 1.775-.524 1.775-1.934v-35.2c0-1.412.064-1.93-1.774-1.93H30.397c-1.849 0-1.774.518-1.774 1.93v9.877c0 1.401-.075 1.934 1.774 1.934h28.605v11.581H21.648c-1.968 0-3.084-.788-3.084-2.82V16.756c0-2.022 1.116-2.82 3.084-2.82h54.117zM387.182.19h-16.754c-2.174 0-3.882.335-5.489 2.115l-23.013 25.212-23.005-25.212C317.286.525 315.596.19 313.434.19H296.67c-1.394 0-1.941.612-.326 2.393l36.314 39.811v19.633c0 1.85.611 1.877 2.023 1.877h14.48c1.402 0 2.042-.027 2.042-1.877V42.394l36.303-39.81C389.114.801 388.585.19 387.182.19M792.72 63.905c1.46 0 6.48-.004 6.712-.019.073-.004.132-.01.132-.9V.767c-.046-.558-.377-.578-.595-.576h-6.573c-.535.037-.548.498-.548.57v56.235a2.053 2.053 0 0 1-1.566-.719L746.101 3.775s-2.577-3.562-6.772-3.61l-6.982.002s-.522.034-.522.556l.007 62.263c0 .894.343.922 1.116.922h6.045c.528-.093.521-.525.521-.597V7.101a2.045 2.045 0 0 1 1.566.72L785.58 60.72c.139.158 2.279 2.696 5.318 3.088l1.823.097zM651.37 38.756c.003-.201-.1-7.478-.1-7.478l.23-8.222s.491-9.821 4.437-14.797c4.27-5.384 10.567-8.05 19.102-8.07l45.608.022c.324 0 .562.175.562.553.007 0 0 4.325 0 4.393a.574.574 0 0 1-.562.506h-45.02c.105-.029-3.118.01-4.373.2-10.266 1.293-11.52 9.409-11.85 14.023-.029.1-.305 5.41-.305 5.41l-.218 6.076.032 6.145c-.01 1.885.167 11.527 2.51 14.897 1.764 2.544 4.268 5.723 13.946 6.029l38.507-.065V34.532l-35.514.052c-.575 0-.588-.546-.588-.546v-4.826c.046-.499.535-.499.773-.499.079 0 41.057.02 42.074 0 .971-.062 1.004.31.99.88v33.758c0 .583-.58.557-.58.557l-47.142.028c-8.323-.1-15.595-3.926-18.587-8.917-3.646-6.079-3.644-11.983-3.932-16.263M604.49 34.361c-.123-.002-30.256-.033-30.256-.033-8.04-.217-17.033-3.311-16.979-17.645C556.992-.377 573.988.132 575.468.094 576.128.098 619.45 0 619.62 0c.07.001.444.021.536.53l-.002 4.393c-.004.469-.474.55-.474.55h-42.157c-2.492.193-12.984-1.12-12.805 11.284-.12 11.091 6.015 11.45 10.08 11.729 1.246 0 29.091.033 29.198.035 4.782.111 18.39-.256 18.573 16.641.242 17.73-15.733 18.493-19.139 18.552l-43.69.002s-.51-.012-.545-.503c0-.48-.026-4.45-.026-4.45s.037-.504.546-.504h41.868l1.92-.044c5.28-.423 11.71-2.4 11.555-12.852-.12-2.221.248-10.762-10.567-11.002"/></g></svg>