<svg width="34" height="34" viewBox="0 0 34 34" xmlns="http://www.w3.org/2000/svg"><title>AA3D04B5-BB99-4C73-A76D-EE24223B8E1A</title><g fill-rule="nonzero" fill="none"><path stroke="#FFF" d="M.991.991h32v32h-32z"/><path d="M9 6.6a2.509 2.509 0 0 1 2.5 2.5c-.003 1.446-1.195 2.53-2.5 2.5-1.333.026-2.5-1.085-2.5-2.5A2.508 2.508 0 0 1 9 6.6zM10.5 27.4H7.6a.694.694 0 0 1-.7-.7V14.2c0-.391.308-.7.7-.7h2.9c.392 0 .7.309.7.7v12.5c0 .391-.308.7-.7.7zM22.6 13.1h-.7c-1.5 0-2.604.7-3.5 1.8-.119.146-.3.4-.3.4v-1.5c0-.2-.1-.3-.3-.3h-3.6c-.2 0-.3.1-.3.3v13.3c0 .2.1.3.3.3h3.7c.2 0 .3-.1.3-.3v-7.7c0-1.3 1.1-2.477 2.4-2.5.698-.012 1.3.2 1.8.7.5.5.7 1.1.7 1.8v7.7c0 .2.098.299.3.3h3.7c.2 0 .3-.1.3-.3v-9.2c0-2.7-2.1-4.8-4.8-4.8z" fill="#FFF"/></g></svg>