<svg width="34" height="34" viewBox="0 0 34 34" xmlns="http://www.w3.org/2000/svg"><title>54573979-8499-45C6-96EE-5C4C185A48F9</title><g fill="none" fill-rule="evenodd"><path stroke="#FFF" d="M1 1h32v32H1z"/><g fill-rule="nonzero" fill="#FFF"><path d="M22.08 13.188c-2.421.126-4.527.86-6.236 2.519-1.727 1.675-2.515 3.728-2.3 6.273-.946-.117-1.808-.246-2.675-.319-.3-.025-.655.01-.909.154-.841.475-1.648 1.011-2.605 1.609.176-.794.29-1.489.49-2.158.148-.491.08-.764-.373-1.084-2.907-2.053-4.132-5.124-3.215-8.285.848-2.925 2.932-4.7 5.762-5.624 3.864-1.262 8.206.025 10.555 3.093a7.23 7.23 0 0 1 1.506 3.822zm-11.143-.985c.022-.578-.48-1.1-1.074-1.117a1.084 1.084 0 0 0-1.129 1.048 1.071 1.071 0 0 0 1.061 1.112c.609.016 1.12-.45 1.142-1.043zm5.814-1.117c-.598.01-1.103.52-1.092 1.1a1.09 1.09 0 0 0 1.12 1.065 1.07 1.07 0 0 0 1.078-1.097 1.077 1.077 0 0 0-1.106-1.068z"/><path d="M27.52 28.283c-.767-.341-1.47-.854-2.219-.932-.746-.078-1.53.353-2.31.432-2.377.244-4.507-.419-6.263-2.043-3.34-3.089-2.862-7.825 1.002-10.357 3.434-2.25 8.47-1.5 10.891 1.622 2.113 2.724 1.865 6.34-.715 8.629-.746.662-1.015 1.207-.536 2.08.089.161.099.365.15.569zm-8.727-8.45c.488 0 .89-.381.908-.863a.908.908 0 0 0-.902-.941.918.918 0 0 0-.912.935.91.91 0 0 0 .906.87zm5.626-1.802a.902.902 0 0 0-.896.863.888.888 0 0 0 .884.933.88.88 0 0 0 .895-.856.896.896 0 0 0-.883-.94z"/></g></g></svg>